# xmcd CD database file
#
# Track frame offsets:
#	150
#	12724
#	26419
#	38990
#	51125
#	63144
#	77333
#	89867
#	102854
#	116171
#	129978
#	143521
#	156237
#	169466
#	182415
#	197447
#	212275
#	225609
#	238033
#	251933
#	266295
#	280614
#	294251
#	309072
#	322946
#	336751
#
# Disc length: 4693 seconds
#
# Revision: 0
# Processed by: cddbd v1.4PL0 Copyright (c) Steve Scherf et al.
# Submitted via: CDex 1.50Beta7
#
DISCID=5c12531a
DTITLE=Floyd Dixon - Cow Town Blues. The Seminal 1948-50 Recordings
DYEAR=1949
DGENRE=Blues
TTITLE0=Doin' The Town
TTITLE1=Mississippi Blues
TTITLE2=That'll Get It Up
TTITLE3=That's All I Care
TTITLE4=Till I Grow Old
TTITLE5=Drafting Blues
TTITLE6=Rita
TTITLE7=Johnny Katherin
TTITLE8=Forever and Ever
TTITLE9=Houston Jump
TTITLE10=Prairie Dog Hole
TTITLE11=Frightening Poor Me
TTITLE12=You Made A Fool Out Of Me
TTITLE13=Cow Town
TTITLE14=Dallas Blues
TTITLE15=Helen
TTITLE16=I'll Be Lonely
TTITLE17=Baby Come Home
TTITLE18=Shuffle Boogie
TTITLE19=Roamin' Around
TTITLE20=People Like Me (Take 2)
TTITLE21=It's Getting Foggy
TTITLE22=Baby Baby Will You Marry Me
TTITLE23=Gloomy Baby
TTITLE24=Playboy Blues
TTITLE25=Milky White Way
EXTD=YEAR: 1949
EXTT0=
EXTT1=
EXTT2=
EXTT3=
EXTT4=
EXTT5=
EXTT6=
EXTT7=
EXTT8=
EXTT9=
EXTT10=
EXTT11=
EXTT12=
EXTT13=
EXTT14=
EXTT15=
EXTT16=
EXTT17=
EXTT18=
EXTT19=
EXTT20=
EXTT21=
EXTT22=
EXTT23=
EXTT24=
EXTT25=
PLAYORDER=
